<svg width="24" height="24" viewBox="0 0 24 24" fill="none" xmlns="http://www.w3.org/2000/svg">
<path d="M24 19.596C24 20.028 23.9039 20.472 23.6995 20.904C23.4952 21.336 23.2308 21.744 22.8823 22.128C22.2934 22.776 21.6445 23.244 20.9114 23.544C20.1903 23.844 19.4091 24 18.5679 24C17.342 24 16.032 23.712 14.65 23.124C13.2679 22.536 11.8858 21.744 10.5158 20.748C9.11941 19.7281 7.80173 18.605 6.57386 17.388C5.35856 16.1664 4.23768 14.8547 3.22083 13.464C2.23535 12.096 1.44216 10.728 0.865298 9.372C0.288433 8.004 0 6.696 0 5.448C0 4.632 0.144216 3.852 0.432649 3.132C0.721082 2.4 1.17777 1.728 1.81472 1.128C2.58388 0.372 3.42514 0 4.31447 0C4.65098 0 4.98748 0.0720001 5.28793 0.216C5.6004 0.36 5.87682 0.576 6.09314 0.888L8.88132 4.812C9.09765 5.112 9.25388 5.388 9.36204 5.652C9.47021 5.904 9.5303 6.156 9.5303 6.384C9.5303 6.672 9.44617 6.96 9.27792 7.236C9.12168 7.512 8.89334 7.8 8.60491 8.088L7.69154 9.036C7.55934 9.168 7.49925 9.324 7.49925 9.516C7.49925 9.612 7.51127 9.696 7.5353 9.792C7.57136 9.888 7.60741 9.96 7.63145 10.032C7.84777 10.428 8.22033 10.944 8.74912 11.568C9.28993 12.192 9.8668 12.828 10.4917 13.464C11.1407 14.1 11.7656 14.688 12.4026 15.228C13.0275 15.756 13.5443 16.116 13.9529 16.332C14.013 16.356 14.0851 16.392 14.1693 16.428C14.2654 16.464 14.3615 16.476 14.4697 16.476C14.674 16.476 14.8302 16.404 14.9624 16.272L15.8758 15.372C16.1763 15.072 16.4647 14.844 16.7411 14.7C17.0175 14.532 17.2939 14.448 17.5944 14.448C17.8227 14.448 18.0631 14.496 18.3275 14.604C18.5919 14.712 18.8683 14.868 19.1688 15.072L23.1467 17.892C23.4592 18.108 23.6755 18.36 23.8077 18.66C23.9279 18.96 24 19.26 24 19.596Z" fill="white"/>
</svg>
