<svg width="15" height="14" viewBox="0 0 15 14" fill="none" xmlns="http://www.w3.org/2000/svg">
<path d="M1.5 13.5C1.0875 13.5 0.734251 13.353 0.440251 13.059C0.146251 12.765 -0.000498727 12.412 1.27334e-06 12V1.5C1.27334e-06 1.0875 0.147001 0.734251 0.441001 0.440251C0.735001 0.146251 1.088 -0.000498727 1.5 1.27334e-06H13.5C13.9125 1.27334e-06 14.2657 0.147001 14.5597 0.441001C14.8537 0.735001 15.0005 1.088 15 1.5V12C15 12.4125 14.853 12.7657 14.559 13.0597C14.265 13.3537 13.912 13.5005 13.5 13.5H1.5ZM1.5 12H13.5V1.5H1.5V12ZM5.25 10.5C5.4625 10.5 5.64075 10.428 5.78475 10.284C5.92875 10.14 6.0005 9.962 6 9.75C6 9.5375 5.928 9.35925 5.784 9.21525C5.64 9.07125 5.462 8.9995 5.25 9H3C2.7875 9 2.60925 9.072 2.46525 9.216C2.32125 9.36 2.2495 9.538 2.25 9.75C2.25 9.9625 2.322 10.1407 2.466 10.2847C2.61 10.4287 2.788 10.5005 3 10.5H5.25ZM9.4125 6.88125L8.86875 6.3375C8.71875 6.1875 8.54375 6.11575 8.34375 6.12225C8.14375 6.12875 7.96875 6.20675 7.81875 6.35625C7.68125 6.50625 7.60925 6.68125 7.60275 6.88125C7.59625 7.08125 7.66825 7.25625 7.81875 7.40625L8.8875 8.475C9.0375 8.625 9.2125 8.7 9.4125 8.7C9.6125 8.7 9.7875 8.625 9.9375 8.475L12.6 5.8125C12.75 5.6625 12.825 5.4875 12.825 5.2875C12.825 5.0875 12.75 4.9125 12.6 4.7625C12.45 4.6125 12.2717 4.5375 12.0652 4.5375C11.8587 4.5375 11.6807 4.6125 11.5312 4.7625L9.4125 6.88125ZM5.25 7.5C5.4625 7.5 5.64075 7.428 5.78475 7.284C5.92875 7.14 6.0005 6.962 6 6.75C6 6.5375 5.928 6.35925 5.784 6.21525C5.64 6.07125 5.462 5.9995 5.25 6H3C2.7875 6 2.60925 6.072 2.46525 6.216C2.32125 6.36 2.2495 6.538 2.25 6.75C2.25 6.9625 2.322 7.14075 2.466 7.28475C2.61 7.42875 2.788 7.5005 3 7.5H5.25ZM5.25 4.5C5.4625 4.5 5.64075 4.428 5.78475 4.284C5.92875 4.14 6.0005 3.962 6 3.75C6 3.5375 5.928 3.35925 5.784 3.21525C5.64 3.07125 5.462 2.9995 5.25 3H3C2.7875 3 2.60925 3.072 2.46525 3.216C2.32125 3.36 2.2495 3.538 2.25 3.75C2.25 3.9625 2.322 4.14075 2.466 4.28475C2.61 4.42875 2.788 4.5005 3 4.5H5.25Z" fill="black"/>
</svg>
